<svg width="300" height="300" viewBox="0 0 300 300" fill="none" xmlns="http://www.w3.org/2000/svg">
<g clip-path="url(#clip0_127_1152)">
<rect width="300" height="300" fill="white"/>
<path d="M45.0114 78.7273C45.0114 75.3864 45.5909 72.4091 46.75 69.7955C47.9318 67.1818 49.6705 65.1136 51.9659 63.5909C54.2841 62.0909 57.1705 61.3409 60.625 61.3409C63.5341 61.3409 65.9773 61.875 67.9545 62.9432C69.9318 64.0114 71.5227 65.4659 72.7273 67.3068C73.9318 69.1477 74.8409 71.2386 75.4545 73.5795C76.0682 75.9432 76.5 78.4205 76.75 81.0114C77.0682 84.0568 77.3636 86.5114 77.6364 88.375C77.9318 90.2386 78.3636 91.5909 78.9318 92.4318C79.5 93.2727 80.3409 93.6932 81.4545 93.6932H81.6591C83.8182 93.6932 85.4886 93.0114 86.6705 91.6477C87.8523 90.3068 88.4432 88.3977 88.4432 85.9205C88.4432 83.3068 87.8636 81.2273 86.7045 79.6818C85.5682 78.1364 84.1364 77.1136 82.4091 76.6136L83.5 63.1818C86.6818 63.8636 89.4318 65.2045 91.75 67.2045C94.0909 69.2045 95.8864 71.7841 97.1364 74.9432C98.4091 78.125 99.0455 81.8068 99.0455 85.9886C99.0455 88.8977 98.7045 91.6818 98.0227 94.3409C97.3409 97.0227 96.2841 99.3977 94.8523 101.466C93.4205 103.557 91.5795 105.205 89.3295 106.409C87.1023 107.614 84.4318 108.216 81.3182 108.216H46V94.4432H53.2614V94.0341C51.625 93.1932 50.1818 92.0682 48.9318 90.6591C47.7045 89.25 46.7386 87.5568 46.0341 85.5795C45.3523 83.6023 45.0114 81.3182 45.0114 78.7273ZM55.0341 82.8864C55.0341 85.0227 55.4545 86.9091 56.2955 88.5455C57.1591 90.1818 58.3182 91.4659 59.7727 92.3977C61.2273 93.3295 62.875 93.7955 64.7159 93.7955H70.2727C69.9773 93.3409 69.7045 92.7159 69.4545 91.9205C69.2273 91.1477 69.0114 90.2727 68.8068 89.2955C68.625 88.3182 68.4545 87.3409 68.2955 86.3636C68.1591 85.3864 68.0341 84.5 67.9205 83.7045C67.6705 82 67.2727 80.5114 66.7273 79.2386C66.1818 77.9659 65.4432 76.9773 64.5114 76.2727C63.6023 75.5682 62.4659 75.2159 61.1023 75.2159C59.125 75.2159 57.6136 75.9318 56.5682 77.3636C55.5455 78.8182 55.0341 80.6591 55.0341 82.8864Z" fill="#F14647"/>
<path d="M45.1477 149.091C45.1477 145.114 46.1705 141.511 48.2159 138.284C50.2841 135.08 53.3182 132.534 57.3182 130.648C61.3409 128.784 66.2727 127.852 72.1136 127.852C78.1136 127.852 83.1023 128.818 87.0795 130.75C91.0795 132.682 94.0682 135.25 96.0455 138.455C98.0455 141.682 99.0455 145.216 99.0455 149.057C99.0455 151.989 98.5455 154.432 97.5455 156.386C96.5682 158.364 95.3409 159.955 93.8636 161.159C92.4091 162.386 90.9773 163.318 89.5682 163.955V164.398H115.818V178.886H46V164.568H54.3864V163.955C52.9318 163.273 51.4886 162.307 50.0568 161.057C48.6477 159.83 47.4773 158.227 46.5455 156.25C45.6136 154.295 45.1477 151.909 45.1477 149.091ZM56.7045 153.693C56.7045 156.034 57.3409 158.011 58.6136 159.625C59.9091 161.261 61.7159 162.511 64.0341 163.375C66.3523 164.261 69.0682 164.705 72.1818 164.705C75.2955 164.705 78 164.273 80.2955 163.409C82.5909 162.545 84.3636 161.295 85.6136 159.659C86.8636 158.023 87.4886 156.034 87.4886 153.693C87.4886 151.307 86.8409 149.295 85.5455 147.659C84.25 146.023 82.4545 144.784 80.1591 143.943C77.8636 143.102 75.2045 142.682 72.1818 142.682C69.1364 142.682 66.4432 143.102 64.1023 143.943C61.7841 144.807 59.9659 146.045 58.6477 147.659C57.3523 149.295 56.7045 151.307 56.7045 153.693Z" fill="#F14647"/>
<path d="M76.2727 208.318H46V193.795H115.818V207.909H89.125V208.523C92.2159 209.705 94.6364 211.614 96.3864 214.25C98.1591 216.886 99.0455 220.193 99.0455 224.17C99.0455 227.807 98.25 230.977 96.6591 233.682C95.0909 236.409 92.8295 238.523 89.875 240.023C86.9432 241.545 83.4318 242.295 79.3409 242.273H46V227.75H76.75C79.9773 227.773 82.4886 226.955 84.2841 225.295C86.0795 223.659 86.9773 221.364 86.9773 218.409C86.9773 216.432 86.5568 214.682 85.7159 213.159C84.875 211.659 83.6477 210.477 82.0341 209.614C80.4432 208.773 78.5227 208.341 76.2727 208.318Z" fill="#F14647"/>
<path d="M112.068 53.1818H130.273L149.5 100.091H150.318L169.545 53.1818H187.75V123H173.432V77.5568H172.852L154.784 122.659H145.034L126.966 77.3864H126.386V123H112.068V53.1818Z" fill="#F14647"/>
<path d="M249.989 224.273C249.989 227.614 249.409 230.591 248.25 233.205C247.068 235.818 245.33 237.886 243.034 239.409C240.716 240.909 237.83 241.659 234.375 241.659C231.466 241.659 229.023 241.125 227.045 240.057C225.068 238.989 223.477 237.534 222.273 235.693C221.068 233.852 220.159 231.761 219.545 229.42C218.932 227.057 218.5 224.58 218.25 221.989C217.932 218.943 217.636 216.489 217.364 214.625C217.068 212.761 216.636 211.409 216.068 210.568C215.5 209.727 214.659 209.307 213.545 209.307H213.341C211.182 209.307 209.511 209.989 208.33 211.352C207.148 212.693 206.557 214.602 206.557 217.08C206.557 219.693 207.136 221.773 208.295 223.318C209.432 224.864 210.864 225.886 212.591 226.386L211.5 239.818C208.318 239.136 205.568 237.795 203.25 235.795C200.909 233.795 199.114 231.216 197.864 228.057C196.591 224.875 195.955 221.193 195.955 217.011C195.955 214.102 196.295 211.318 196.977 208.659C197.659 205.977 198.716 203.602 200.148 201.534C201.58 199.443 203.42 197.795 205.67 196.591C207.898 195.386 210.568 194.784 213.682 194.784H249V208.557H241.739V208.966C243.375 209.807 244.818 210.932 246.068 212.341C247.295 213.75 248.261 215.443 248.966 217.42C249.648 219.398 249.989 221.682 249.989 224.273ZM239.966 220.114C239.966 217.977 239.545 216.091 238.705 214.455C237.841 212.818 236.682 211.534 235.227 210.602C233.773 209.67 232.125 209.205 230.284 209.205H224.727C225.023 209.659 225.295 210.284 225.545 211.08C225.773 211.852 225.989 212.727 226.193 213.705C226.375 214.682 226.545 215.659 226.705 216.636C226.841 217.614 226.966 218.5 227.08 219.295C227.33 221 227.727 222.489 228.273 223.761C228.818 225.034 229.557 226.023 230.489 226.727C231.398 227.432 232.534 227.784 233.898 227.784C235.875 227.784 237.386 227.068 238.432 225.636C239.455 224.182 239.966 222.341 239.966 220.114Z" fill="#F14647"/>
<path d="M218.727 164.682H249V179.205L179.182 179.205V165.091L205.875 165.091V164.477C202.784 163.295 200.364 161.386 198.614 158.75C196.841 156.114 195.955 152.807 195.955 148.83C195.955 145.193 196.75 142.023 198.341 139.318C199.909 136.591 202.17 134.477 205.125 132.977C208.057 131.455 211.568 130.705 215.659 130.727H249V145.25H218.25C215.023 145.227 212.511 146.045 210.716 147.705C208.92 149.341 208.023 151.636 208.023 154.591C208.023 156.568 208.443 158.318 209.284 159.841C210.125 161.341 211.352 162.523 212.966 163.386C214.557 164.227 216.477 164.659 218.727 164.682Z" fill="#F14647"/>
<path d="M250.023 84.3409C250.023 89.7273 248.932 94.3636 246.75 98.25C244.545 102.114 241.432 105.091 237.409 107.182C233.364 109.273 228.58 110.318 223.057 110.318C217.67 110.318 212.943 109.273 208.875 107.182C204.807 105.091 201.636 102.148 199.364 98.3523C197.091 94.5341 195.955 90.0568 195.955 84.9205C195.955 81.4659 196.511 78.25 197.625 75.2727C198.716 72.2727 200.364 69.6591 202.568 67.4318C204.773 65.1818 207.545 63.4318 210.886 62.1818C214.205 60.9318 218.091 60.3068 222.545 60.3068H226.534V104.523L217.534 104.523V73.9773C215.443 73.9773 213.591 74.4318 211.977 75.3409C210.364 76.25 209.102 77.5114 208.193 79.125C207.261 80.7159 206.795 82.5682 206.795 84.6818C206.795 86.8864 207.307 88.8409 208.33 90.5455C209.33 92.2273 210.682 93.5455 212.386 94.5C214.068 95.4545 215.943 95.9432 218.011 95.9659H226.568C229.159 95.9659 231.398 95.4886 233.284 94.5341C235.17 93.5568 236.625 92.1818 237.648 90.4091C238.67 88.6364 239.182 86.5341 239.182 84.1023C239.182 82.4886 238.955 81.0114 238.5 79.6705C238.045 78.3295 237.364 77.1818 236.455 76.2273C235.545 75.2727 234.432 74.5455 233.114 74.0455L234 60.6136C237.227 61.2955 240.045 62.6932 242.455 64.8068C244.841 66.8977 246.705 69.6023 248.045 72.9205C249.364 76.2159 250.023 80.0227 250.023 84.3409Z" fill="#F14647"/>
<path d="M169.193 186.182H183.955V231.523C183.955 236.614 182.739 241.068 180.307 244.886C177.898 248.705 174.523 251.682 170.182 253.818C165.841 255.932 160.784 256.989 155.011 256.989C149.216 256.989 144.148 255.932 139.807 253.818C135.466 251.682 132.091 248.705 129.682 244.886C127.273 241.068 126.068 236.614 126.068 231.523V186.182H140.83V230.261C140.83 232.92 141.409 235.284 142.568 237.352C143.75 239.42 145.409 241.045 147.545 242.227C149.682 243.409 152.17 244 155.011 244C157.875 244 160.364 243.409 162.477 242.227C164.614 241.045 166.261 239.42 167.42 237.352C168.602 235.284 169.193 232.92 169.193 230.261V186.182Z" fill="#F14647"/>
<path d="M115.5 179L115 164.5L181.5 165V179H115.5Z" fill="#F14647"/>
<rect x="116" y="142" width="22" height="10" fill="#F14647"/>
<rect x="138" y="142" width="45" height="10" fill="#FF6465"/>
</g>
<defs>
<clipPath id="clip0_127_1152">
<rect width="300" height="300" fill="white"/>
</clipPath>
</defs>
</svg>
